<svg width="10" height="12" viewBox="0 0 10 12" fill="none" xmlns="http://www.w3.org/2000/svg">
<mask id="path-1-inside-1_9_441" fill="white">
<path d="M7.91671 3.2L7.33337 2.5L5.00004 5.3L2.66671 2.5L2.08337 3.2L4.41671 6L2.08337 8.8L2.66671 9.5L5.00004 6.7L7.33337 9.5L7.91671 8.8L5.58337 6L7.91671 3.2Z"/>
</mask>
<path d="M7.91671 3.2L7.33337 2.5L5.00004 5.3L2.66671 2.5L2.08337 3.2L4.41671 6L2.08337 8.8L2.66671 9.5L5.00004 6.7L7.33337 9.5L7.91671 8.8L5.58337 6L7.91671 3.2Z" fill="white"/>
<path d="M7.91671 3.2L9.06904 4.16028L9.86927 3.2L9.06904 2.23972L7.91671 3.2ZM7.33337 2.5L8.48571 1.53972L7.33338 0.156925L6.18104 1.53972L7.33337 2.5ZM5.00004 5.3L3.84771 6.26028L5.00004 7.64307L6.15237 6.26028L5.00004 5.3ZM2.66671 2.5L3.81904 1.53972L2.66671 0.156925L1.51438 1.53972L2.66671 2.5ZM2.08337 3.2L0.931042 2.23972L0.130811 3.2L0.931042 4.16028L2.08337 3.2ZM4.41671 6L5.56904 6.96028L6.36927 6L5.56904 5.03972L4.41671 6ZM2.08337 8.8L0.931042 7.83972L0.130811 8.8L0.931042 9.76028L2.08337 8.8ZM2.66671 9.5L1.51438 10.4603L2.66671 11.8431L3.81904 10.4603L2.66671 9.5ZM5.00004 6.7L6.15237 5.73972L5.00004 4.35693L3.84771 5.73972L5.00004 6.7ZM7.33337 9.5L6.18104 10.4603L7.33337 11.8431L8.48571 10.4603L7.33337 9.5ZM7.91671 8.8L9.06904 9.76028L9.86927 8.8L9.06904 7.83972L7.91671 8.8ZM5.58337 6L4.43104 5.03972L3.63081 6L4.43104 6.96028L5.58337 6ZM9.06904 2.23972L8.48571 1.53972L6.18104 3.46028L6.76438 4.16028L9.06904 2.23972ZM6.18104 1.53972L3.84771 4.33972L6.15237 6.26028L8.48571 3.46028L6.18104 1.53972ZM6.15237 4.33972L3.81904 1.53972L1.51438 3.46028L3.84771 6.26028L6.15237 4.33972ZM1.51438 1.53972L0.931042 2.23972L3.23571 4.16028L3.81904 3.46028L1.51438 1.53972ZM0.931042 4.16028L3.26438 6.96028L5.56904 5.03972L3.23571 2.23972L0.931042 4.16028ZM3.26438 5.03972L0.931042 7.83972L3.23571 9.76028L5.56904 6.96028L3.26438 5.03972ZM0.931042 9.76028L1.51438 10.4603L3.81904 8.53972L3.23571 7.83972L0.931042 9.76028ZM3.81904 10.4603L6.15237 7.66028L3.84771 5.73972L1.51438 8.53972L3.81904 10.4603ZM3.84771 7.66028L6.18104 10.4603L8.48571 8.53972L6.15237 5.73972L3.84771 7.66028ZM8.48571 10.4603L9.06904 9.76028L6.76438 7.83972L6.18104 8.53972L8.48571 10.4603ZM9.06904 7.83972L6.73571 5.03972L4.43104 6.96028L6.76438 9.76028L9.06904 7.83972ZM6.73571 6.96028L9.06904 4.16028L6.76438 2.23972L4.43104 5.03972L6.73571 6.96028Z" fill="white" mask="url(#path-1-inside-1_9_441)"/>
</svg>
